<svg width="21" height="20" viewBox="0 0 21 20" fill="none" xmlns="http://www.w3.org/2000/svg">
<g clip-path="url(#clip0_7_3829)">
<path fill-rule="evenodd" clip-rule="evenodd" d="M15.6904 17.4997C15.6904 16.5792 16.4657 15.833 17.422 15.833C18.3784 15.833 19.1536 16.5792 19.1536 17.4997C19.1536 18.4202 18.3784 19.1663 17.422 19.1663C16.4657 19.1663 15.6904 18.4202 15.6904 17.4997Z" fill="white"/>
<path fill-rule="evenodd" clip-rule="evenodd" d="M6.1665 17.4997C6.1665 16.5792 6.94176 15.833 7.89809 15.833C8.85444 15.833 9.62967 16.5792 9.62967 17.4997C9.62967 18.4202 8.85444 19.1663 7.89809 19.1663C6.94176 19.1663 6.1665 18.4202 6.1665 17.4997Z" fill="white"/>
<path fill-rule="evenodd" clip-rule="evenodd" d="M0.105957 0.833333C0.105957 0.373096 0.493585 0 0.971748 0H4.43491C4.84757 0 5.20288 0.280321 5.28386 0.669786L6.01102 4.16667H20.0191C20.2772 4.16667 20.5217 4.27744 20.6862 4.4688C20.8507 4.66015 20.9179 4.91215 20.8696 5.15611L19.4831 12.154C19.3643 12.7295 19.0391 13.2465 18.5642 13.6144C18.0917 13.9805 17.5011 14.1758 16.8949 14.1667H8.49429C7.88801 14.1758 7.29739 13.9805 6.82491 13.6144C6.35026 13.2466 6.02506 12.7299 5.90618 12.1547C5.90612 12.1545 5.90623 12.1549 5.90618 12.1547L4.45984 5.19933C4.45397 5.17632 4.44909 5.15294 4.44526 5.12923L3.72524 1.66667H0.971748C0.493585 1.66667 0.105957 1.29357 0.105957 0.833333H0.105957ZM6.3576 5.83333L7.60443 11.8293C7.64402 12.0212 7.75244 12.1935 7.91072 12.3161C8.06901 12.4387 8.26707 12.5039 8.47022 12.5002L8.48681 12.5H16.9023L16.9189 12.5002C17.122 12.5039 17.3201 12.4387 17.4784 12.3161C17.636 12.194 17.7441 12.0227 17.7841 11.832L18.9727 5.83333H6.3576Z" fill="white"/>
</g>
<defs>
<clipPath id="clip0_7_3829">
<rect width="20.779" height="20" fill="white" transform="translate(0.105957)"/>
</clipPath>
</defs>
</svg>
