<svg width="24" height="22" viewBox="0 0 24 22" fill="none" xmlns="http://www.w3.org/2000/svg">
<path d="M15.7295 3.55371C18.5144 3.55371 20.7713 5.68841 20.7713 8.67701C20.7713 14.6542 13.8962 18.0698 11.6044 19.3506C9.31267 18.0698 2.4375 14.6542 2.4375 8.67701C2.4375 5.68841 4.72923 3.55371 7.47929 3.55371C9.18433 3.55371 10.6877 4.40759 11.6044 5.26147C12.521 4.40759 14.0244 3.55371 15.7295 3.55371ZM12.4606 16.8777C13.2681 16.403 13.997 15.9308 14.679 15.4253C17.4116 13.4016 18.9379 11.19 18.9379 8.67701C18.9379 6.66184 17.529 5.26147 15.7295 5.26147C14.7431 5.26147 13.6761 5.74818 12.9005 6.46886L11.6044 7.67625L10.3082 6.46886C9.53267 5.74818 8.46565 5.26147 7.47929 5.26147C5.70091 5.26147 4.27088 6.6755 4.27088 8.67701C4.27088 11.1909 5.79808 13.4016 8.5289 15.4253C9.21183 15.9308 9.9406 16.403 10.7482 16.8769C11.0223 17.0383 11.2936 17.1928 11.6044 17.3653C11.9151 17.1928 12.1865 17.0383 12.4606 16.8777Z" fill="white"/>
</svg>
