<svg width="22" height="20" viewBox="0 0 22 20" fill="none" xmlns="http://www.w3.org/2000/svg">
<path d="M10.7157 9.16634C11.5772 9.16634 12.4194 8.922 13.1358 8.46409C13.8521 8.00629 14.4104 7.35555 14.7401 6.59419C15.0697 5.83283 15.1561 4.99506 14.9879 4.1868C14.8199 3.37855 14.405 2.63611 13.7958 2.0534C13.1867 1.47068 12.4105 1.07384 11.5656 0.913073C10.7205 0.752298 9.84469 0.834814 9.04877 1.15017C8.25281 1.46554 7.57251 1.9996 7.09387 2.6848C6.61523 3.37001 6.35976 4.17559 6.35976 4.99967C6.36114 6.10434 6.82051 7.16337 7.63712 7.94449C8.45372 8.72559 9.56086 9.165 10.7157 9.16634ZM10.7157 2.49967C11.2326 2.49967 11.738 2.6463 12.1677 2.921C12.5976 3.19571 12.9325 3.58615 13.1303 4.04296C13.3281 4.49978 13.3799 5.00245 13.2791 5.4874C13.1782 5.97235 12.9293 6.41781 12.5638 6.76744C12.1983 7.11707 11.7326 7.35517 11.2256 7.45164C10.7186 7.5481 10.1931 7.49859 9.7155 7.30937C9.238 7.12015 8.82979 6.79972 8.5426 6.3886C8.25543 5.97748 8.10214 5.49413 8.10214 4.99967C8.10214 4.33663 8.3775 3.70075 8.86764 3.23191C9.35779 2.76306 10.0226 2.49967 10.7157 2.49967ZM2.875 18.333V14.9997C2.87639 13.895 3.33575 12.836 4.15236 12.0548C4.96896 11.2738 6.07611 10.8343 7.23095 10.833H14.2005C15.3553 10.8343 16.4624 11.2738 17.2791 12.0548C18.0956 12.836 18.555 13.895 18.5564 14.9997V18.333C18.5564 18.554 18.4646 18.766 18.3012 18.9223C18.1379 19.0785 17.9163 19.1663 17.6852 19.1663C17.4542 19.1663 17.2326 19.0785 17.0692 18.9223C16.9059 18.766 16.814 18.554 16.814 18.333V14.9997C16.814 14.3367 16.5387 13.7008 16.0485 13.2319C15.5584 12.7631 14.8936 12.4997 14.2005 12.4997H7.23095C6.53779 12.4997 5.87302 12.7631 5.38288 13.2319C4.89274 13.7008 4.61738 14.3367 4.61738 14.9997V18.333C4.61738 18.554 4.52559 18.766 4.36222 18.9223C4.19883 19.0785 3.97725 19.1663 3.74619 19.1663C3.51513 19.1663 3.29355 19.0785 3.13016 18.9223C2.96679 18.766 2.875 18.554 2.875 18.333Z" fill="white"/>
</svg>
